<?xml version="1.0" encoding="UTF-8" standalone="no"?>
<svg width="243px" height="82px" viewBox="0 0 243 82" version="1.1" xmlns="http://www.w3.org/2000/svg" xmlns:xlink="http://www.w3.org/1999/xlink" xmlns:sketch="http://www.bohemiancoding.com/sketch/ns">
    <!-- Generator: Sketch 3.0.4 (8053) - http://www.bohemiancoding.com/sketch -->
    <title>App Store</title>
    <desc>Created with Sketch.</desc>
    <defs></defs>
    <g id="Page-1" stroke="none" stroke-width="1" fill="none" fill-rule="evenodd" sketch:type="MSPage">
        <g id="Desktop-HD" sketch:type="MSArtboardGroup" transform="translate(-21.000000, -347.000000)">
            <g id="App-Store" sketch:type="MSLayerGroup" transform="translate(21.000000, 347.000000)">
                <path d="M0,13.494693 L0,68.505307 C0,75.9582202 6.03705264,82 13.4980241,82 L229.501976,82 C236.956729,82 243,75.9537037 243,68.505307 L243,13.494693 C243,6.04177984 236.962947,0 229.501976,0 L13.4980241,0 C6.04327125,-3.15544362e-30 0,6.04629633 0,13.494693 Z" id="background" fill="#000000" sketch:type="MSShapeGroup"></path>
                <g id="icon" transform="translate(21.552471, 14.432000)" fill="#FFFFFF" sketch:type="MSShapeGroup">
                    <path d="M36.6851624,15.8389253 C33.9265373,11.829697 29.6507597,11.2819087 28.1482127,11.2382312 C24.5570707,10.861513 21.0736447,13.3802474 19.2442984,13.3802474 C17.3784381,13.3802474 14.5613908,11.2746291 11.52526,11.3365055 C7.61827281,11.3965621 3.96323149,13.6514118 1.95861841,17.1528894 C-2.17840638,24.2923367 0.907018114,34.7840304 4.87060189,40.5549168 C6.85330662,43.3830334 9.17011353,46.5369111 12.2025929,46.4258975 C15.1693472,46.3057844 16.277544,44.5404865 19.8577319,44.5404865 C23.4050572,44.5404865 24.4457033,46.4258975 27.5384306,46.3531017 C30.7224426,46.3057844 32.7270557,43.5158857 34.640384,40.6622906 C36.9316312,37.4265176 37.8517815,34.2326022 37.8882953,34.0688117 C37.8152676,34.0451531 31.7064922,31.7211474 31.6444186,24.6908937" id="Fill-2"></path>
                    <path d="M28.1865523,0.000380736289 C25.8770482,0.102294846 22.9887987,1.5927887 21.3255906,3.53825626 C19.8540805,5.25259718 18.5395801,8.06251477 18.8791594,10.705002 C21.4734719,10.8979109 24.1371609,9.40013746 25.8021947,7.44193064" id="Fill-3"></path>
                </g>
                <g transform="translate(75.680433, 35.916000)" fill="#FFFFFF" sketch:type="MSShapeGroup">
                    <path d="M16.3416856,24.5360609 L14.0705211,17.4220921 L6.17621606,17.4220921 L4.01276752,24.5360609 L-0.023844046,24.5360609 L7.79925888,0.316900736 L12.6300478,0.316900736 L20.4878389,24.5360609 L16.3416856,24.5360609 Z M11.3319786,8.11515002 C11.1147209,7.46726747 10.7057653,5.9458354 10.1069373,3.55085382 L10.0339095,3.55085382 C9.79291779,4.58091429 9.40769615,6.10234636 8.8800703,8.11515002 L6.86085167,14.4374646 L13.3858855,14.4374646 L11.3319786,8.11515002 Z" id="Fill-4"></path>
                    <path d="M38.1386578,22.6306311 C36.689056,24.1648024 34.8870951,24.9309781 32.7382521,24.9309781 C30.4177938,24.9309781 28.7491086,24.1065658 27.7358479,22.4522814 L27.7358479,31.6154518 L23.8434662,31.6154518 L23.8434662,12.8122985 C23.8434662,10.9469064 23.7941725,9.0341969 23.6992363,7.07235029 L27.1224144,7.07235029 L27.3396721,9.8422302 L27.4126999,9.8422302 C28.710769,7.75481085 30.6806939,6.71201112 33.3243002,6.71201112 C35.3909869,6.71201112 37.1162687,7.5255041 38.496494,9.15430996 C39.8748937,10.7867556 40.5668321,12.9305917 40.5668321,15.589458 C40.5668321,18.5595264 39.7580493,20.9071907 38.1386578,22.6306311 Z M35.4475835,11.5274528 C34.6059381,10.3790992 33.4758329,9.80219252 32.0590936,9.80219252 C31.098778,9.80219252 30.2260958,10.122494 29.4465241,10.7558174 C28.6651267,11.3909607 28.1539321,12.2226526 27.914766,13.254533 C27.7942702,13.7331653 27.7340222,14.1244427 27.7340222,14.4338248 L27.7340222,17.3492963 C27.7340222,18.6159431 28.1247209,19.6878612 28.9061184,20.5650505 C29.6875158,21.4386 30.7026022,21.8771946 31.9513776,21.8771946 C33.4174106,21.8771946 34.55847,21.3112073 35.3745557,20.1883322 C36.192467,19.0618173 36.6014227,17.5767832 36.6014227,15.7314098 C36.6014227,14.0316281 36.2180267,12.6303091 35.4475835,11.5274528 Z" id="Fill-5"></path>
                    <path d="M58.2888532,22.6306311 C56.8374257,24.1648024 55.0372904,24.9309781 52.8866218,24.9309781 C50.5679892,24.9309781 48.899304,24.1065658 47.8842176,22.4522814 L47.8842176,31.6154518 L43.9918359,31.6154518 L43.9918359,12.8122985 C43.9918359,10.9469064 43.9425421,9.0341969 43.847606,7.07235029 L47.2707841,7.07235029 L47.4880418,9.8422302 L47.5610696,9.8422302 C48.857313,7.75481085 50.8272378,6.71201112 53.4726699,6.71201112 C55.5375309,6.71201112 57.2646383,7.5255041 58.6466894,9.15430996 C60.0232634,10.7867556 60.7170275,12.9305917 60.7170275,15.589458 C60.7170275,18.5595264 59.9082446,20.9071907 58.2888532,22.6306311 Z M55.5941274,11.5274528 C54.7543077,10.3790992 53.6260282,9.80219252 52.2092889,9.80219252 C51.2489734,9.80219252 50.3762912,10.122494 49.5930681,10.7558174 C48.8134963,11.3909607 48.3023017,12.2226526 48.0631357,13.254533 C47.9444655,13.7331653 47.8805662,14.1244427 47.8805662,14.4338248 L47.8805662,17.3492963 C47.8805662,18.6159431 48.2730906,19.6878612 49.0508366,20.5650505 C49.8322341,21.4367801 50.8473205,21.8771946 52.0997472,21.8771946 C53.567606,21.8771946 54.7086653,21.3112073 55.5229253,20.1883322 C56.3408366,19.0618173 56.7497923,17.5767832 56.7497923,15.7314098 C56.7497923,14.0316281 56.3645707,12.6303091 55.5941274,11.5274528 Z" id="Fill-6"></path>
                    <path d="M81.0863062,22.7744028 C79.5052544,24.1866411 77.2979892,24.8945802 74.468162,24.8945802 C71.8537668,24.8945802 69.757869,24.3922893 68.1768171,23.3858874 L69.0768847,20.1519343 C70.7839095,21.1583362 72.6588983,21.662447 74.7000252,21.662447 C76.167884,21.662447 77.3089433,21.3312262 78.1232033,20.6742441 C78.9411146,20.0136223 79.351896,19.1346131 79.351896,18.0353967 C79.351896,17.0508336 79.0123167,16.2246013 78.340461,15.5530601 C77.6667795,14.8851587 76.5531056,14.2591149 74.9903107,13.6876679 C70.7364415,12.1061794 68.6076811,9.79127315 68.6076811,6.75022891 C68.6076811,4.76290377 69.3598674,3.13591781 70.858763,1.86381133 C72.3594843,0.593524748 74.3494918,-0.0416185424 76.8251342,-0.0416185424 C79.0360508,-0.0416185424 80.878177,0.342379264 82.3405587,1.10855498 L81.3638119,4.27153217 C79.9872378,3.52901509 78.4335714,3.15775654 76.6955098,3.15775654 C75.3225872,3.15775654 74.2436015,3.49443708 73.4749839,4.16415838 C72.8268622,4.76290377 72.4964114,5.49268159 72.4964114,6.35895153 C72.4964114,7.3143963 72.8706789,8.10787044 73.6173881,8.72845458 C74.2636841,9.30354134 75.4430831,9.92776526 77.1482822,10.5974866 C79.2405286,11.438278 80.7759381,12.4173814 81.7618134,13.5420764 C82.7531657,14.6667714 83.2461034,16.0699103 83.2461034,17.7442135" id="Fill-7"></path>
                    <path d="M91.8579065,9.984182 L91.8579065,18.4630719 C91.8579065,20.6196473 92.6137442,21.6952051 94.1290711,21.6952051 C94.8246608,21.6952051 95.4015804,21.6369685 95.8580042,21.5150356 L95.9657202,24.4614453 C95.1989283,24.7471687 94.189319,24.8909404 92.9405436,24.8909404 C91.4014828,24.8909404 90.2020012,24.4214076 89.3329704,23.4878015 C88.467591,22.5523756 88.0349013,20.9854462 88.0349013,18.7797336 L88.0349013,9.97690242 L85.480754,9.97690242 L85.480754,7.06507071 L88.0349013,7.06507071 L88.0349013,3.86751552 L91.8579065,2.717342 L91.8579065,7.06507071 L96.1482897,7.06507071 L96.1482897,9.984182" id="Fill-8"></path>
                    <path d="M113.160115,22.2721118 C111.551678,24.0446893 109.411964,24.9309781 106.744623,24.9309781 C104.170393,24.9309781 102.123789,24.0810872 100.597508,22.3813055 C99.0712273,20.6815237 98.3080868,18.5376876 98.3080868,15.9516171 C98.3080868,13.2454335 99.0986128,11.0288016 100.66871,9.30536123 C102.242459,7.58192084 104.363917,6.7174708 107.031257,6.7174708 C109.603662,6.7174708 111.666697,7.57100147 113.231317,9.26896334 C114.724736,10.9196079 115.467794,13.047065 115.467794,15.6604339 C115.467794,18.3447788 114.699176,20.5486714 113.160115,22.2721118 Z M110.390536,11.6293669 C109.57445,10.2426071 108.40418,9.55104703 106.892505,9.55104703 C105.335187,9.55104703 104.135705,10.2426071 103.323271,11.6293669 C102.62403,12.7777205 102.278973,14.1735799 102.278973,15.8224046 C102.278973,17.423912 102.62403,18.7997525 103.323271,19.9426464 C104.164916,21.3312262 105.338838,22.0246061 106.861468,22.0246061 C108.347583,22.0246061 109.514203,21.3148471 110.359499,19.9098883 C111.073346,18.7342363 111.433008,17.3529361 111.433008,15.7496088 C111.433008,14.1499212 111.086126,12.7777205 110.390536,11.6293669 Z" id="Fill-9"></path>
                    <path d="M126.89847,10.3790992 C125.529199,10.3790992 124.470296,10.8904896 123.725412,11.9241899 C123.07729,12.8341373 122.754142,13.9843108 122.754142,15.3728905 L122.754142,24.5360609 L118.861761,24.5360609 L118.861761,12.5720724 C118.861761,10.5610887 118.823421,8.72481479 118.748568,7.07417019 L122.138883,7.07417019 L122.281287,10.4154971 L122.389003,10.4154971 C122.80161,9.26714344 123.447907,8.34081698 124.335194,7.64925695 C125.204225,7.02321313 126.138981,6.71201112 127.14859,6.71201112 C127.508252,6.71201112 127.833226,6.73930954 128.121686,6.78298702 L128.125337,10.4846531" id="Fill-10"></path>
                    <path d="M145.390934,16.7378117 L133.715615,16.7378117 C133.757606,18.4630719 134.325397,19.7843156 135.408034,20.694263 C136.392084,21.5059361 137.666419,21.9135925 139.227388,21.9135925 C140.956321,21.9135925 142.533722,21.6406083 143.952287,21.0873603 L144.562069,23.7808046 C142.904338,24.4996631 140.945367,24.8600022 138.688808,24.8600022 C135.972174,24.8600022 133.839762,24.0628883 132.287922,22.4723002 C130.741558,20.8798923 129.963812,18.7378761 129.963812,16.0589909 C129.963812,13.427423 130.683136,11.2344497 132.129086,9.48553082 C133.640762,7.61831874 135.683714,6.6847127 138.254293,6.6847127 C140.779229,6.6847127 142.690731,7.61831874 143.986975,9.48553082 C145.016667,10.9651053 145.533339,12.7995593 145.533339,14.9779734 C145.533339,15.6731732 145.487696,16.2591793 145.390934,16.7378117 Z M141.065863,10.9887639 C140.392181,9.90774642 139.355187,9.36905755 137.965833,9.36905755 C136.691498,9.36905755 135.656329,9.89500715 134.867629,10.9505461 C134.219507,11.7895177 133.834285,12.7995593 133.715615,13.9679318 L141.821701,13.9715715 C141.849086,12.8195781 141.593489,11.8295553 141.065863,10.9887639 Z" id="Fill-11"></path>
                </g>
                <g id="Available-on-the" transform="translate(77.161137, 15.088000)" fill="#FFFFFF" sketch:type="MSShapeGroup">
                    <path d="M7.98906565,12.4767417 L6.87356602,8.98072379 L2.99396422,8.98072379 L1.92958406,12.4767417 L-0.0549463728,12.4767417 L3.78996723,0.572809737 L6.16337068,0.572809737 L10.0283669,12.4767417 L7.98906565,12.4767417 Z M5.52802883,4.40550822 C5.42213853,4.08702663 5.22678916,3.34632944 4.92554949,2.16339781 L4.8890356,2.16339781 C4.76488834,2.67478825 4.58779593,3.41730533 4.32124446,4.40550822 L3.32989209,7.51388856 L6.53763815,7.51388856 L5.52802883,4.40550822 Z" id="Fill-12"></path>
                    <path d="M16.3817854,12.4767417 L14.5214022,12.4767417 L11.3666013,3.89411778 L13.4223339,3.89411778 L14.893844,8.43293545 C15.1421385,9.19183159 15.3539191,9.91614972 15.5127546,10.60407 L15.5656998,10.60407 C15.708104,9.98712562 15.9198846,9.26280748 16.1846104,8.43293545 L17.6378635,3.89411778 L19.6424766,3.89411778" id="Fill-13"></path>
                    <path d="M26.4413647,11.4885388 L26.3884195,11.4885388 C25.8041971,12.2838329 24.9534233,12.6714705 23.8726119,12.6714705 C22.3317253,12.6714705 21.2326569,11.5940927 21.2326569,10.1454565 C21.2326569,8.0270989 23.0747832,6.93152222 26.2642723,6.93152222 L26.2642723,6.77319137 C26.2642723,5.64303669 25.6617929,5.07704941 24.4750912,5.07704941 C23.6243173,5.07704941 22.8794338,5.2899771 22.225835,5.71401259 L21.836962,4.46010506 C22.6347907,3.96509367 23.626143,3.71758798 24.7964135,3.71758798 C27.0456697,3.71758798 28.181252,4.90051961 28.181252,7.26820276 L28.181252,10.4293601 C28.181252,11.29563 28.2177659,11.9671712 28.3053992,12.4785616 L26.5837689,12.4767417 L26.4413647,11.4885388 Z M23.1277283,9.93252878 C23.1277283,10.8333767 23.6772625,11.2737913 24.4385773,11.2737913 C25.4134984,11.2737913 26.3172174,10.5330941 26.3172174,9.52669223 L26.3172174,8.20180881 C24.1902828,8.20180881 23.1277283,8.71501914 23.1277283,9.93252878 Z" id="Fill-14"></path>
                    <path d="M31.3086675,1.33170588 C31.3086675,0.678363636 31.8216877,0.201551195 32.4789379,0.201551195 C33.1343624,0.201551195 33.6656397,0.678363636 33.6473827,1.33170588 C33.6473827,2.02144601 33.1526194,2.4800595 32.442424,2.4800595 C31.8052565,2.4800595 31.3086675,1.98504811 31.3086675,1.33170588 Z M33.4356021,3.89411778 L33.4356021,12.4767417 L31.5222738,12.4767417 L31.5222738,3.89411778 L33.4356021,3.89411778 Z" id="Fill-15"></path>
                    <path d="M38.7483744,-0.0441346056 L38.7483744,12.4767417 L36.8350461,12.4767417 L36.8350461,-0.0441346056 L38.7483744,-0.0441346056 Z" id="Fill-16"></path>
                    <path d="M46.7357899,11.4885388 L46.6846705,11.4885388 C46.1004481,12.2838329 45.2496742,12.6714705 44.1688628,12.6714705 C42.6279762,12.6714705 41.5289079,11.5940927 41.5289079,10.1454565 C41.5289079,8.0270989 43.3710341,6.93152222 46.5605232,6.93152222 L46.5605232,6.77319137 C46.5605232,5.64303669 45.9580439,5.07704941 44.7713421,5.07704941 C43.9205683,5.07704941 43.1756847,5.2899771 42.5220859,5.71401259 L42.1313872,4.45828517 C42.9292159,3.96327378 43.9205683,3.71576808 45.0908388,3.71576808 C47.3400949,3.71576808 48.4775029,4.89869971 48.4775029,7.26638287 L48.4775029,10.4275402 C48.4775029,11.2938101 48.5140168,11.9653513 48.5979988,12.4767417 L46.8800198,12.4767417 L46.7357899,11.4885388 Z M43.4239792,9.93252878 C43.4239792,10.8333767 43.9735134,11.2737913 44.7348282,11.2737913 C45.7097493,11.2737913 46.6134684,10.5330941 46.6134684,9.52669223 L46.6134684,8.20180881 C44.4865337,8.20180881 43.4239792,8.71501914 43.4239792,9.93252878 Z" id="Fill-17"></path>
                    <path d="M53.5182467,11.1518583 L53.4817328,11.1518583 L53.3721911,12.4767417 L51.7436712,12.4767417 C51.7947907,11.7888215 51.8130476,11.0099065 51.8130476,10.1636554 L51.8130476,-0.0441346056 L53.7300273,-0.0441346056 L53.7300273,5.1498452 L53.7647155,5.1498452 C54.3325067,4.19622032 55.2526569,3.71940787 56.5105608,3.71940787 C58.5845502,3.71940787 60.0378034,5.48652574 60.0378034,8.0634968 C60.0378034,10.7278228 58.4238891,12.6714705 56.227578,12.6714705 C55.0061881,12.6714705 54.1042948,12.1582601 53.5182467,11.1518583 Z M53.7300273,7.49568962 L53.7300273,8.99710284 C53.7300273,10.1800345 54.635572,11.1518583 55.8040168,11.1518583 C57.2371874,11.1518583 58.0916126,9.98712562 58.0916126,8.1326528 C58.0897869,6.40193283 57.2024992,5.21718131 55.838705,5.21718131 C54.737811,5.21718131 53.7300273,6.17080619 53.7300273,7.49568962 Z" id="Fill-18"></path>
                    <path d="M64.780959,-0.0441346056 L64.780959,12.4767417 L62.8694563,12.4767417 L62.8694563,-0.0441346056 L64.780959,-0.0441346056 Z" id="Fill-19"></path>
                    <path d="M69.4510867,8.64404325 C69.4894263,10.2692093 70.5665863,11.1864363 72.160418,11.1864363 C73.0130176,11.1864363 73.7925893,11.0444845 74.482702,10.7805998 L74.7802903,12.1054832 C73.9660303,12.4585428 73.0093662,12.6350726 71.8938665,12.6350726 C69.1991408,12.6350726 67.6053091,10.9389306 67.6053091,8.3091826 C67.6053091,5.6776147 69.2374804,3.69938903 71.6802602,3.69938903 C73.8747456,3.69938903 75.2604481,5.3245551 75.2604481,7.77959321 C75.2659252,8.11445385 75.2494939,8.4147365 75.194723,8.64404325 L69.4510867,8.64404325 Z M71.5433331,5.02427246 C70.4442647,5.02427246 69.5788853,5.97789734 69.4510867,7.28458182 L73.4420559,7.28458182 C73.4420559,5.95969839 72.7665487,5.02427246 71.5433331,5.02427246 Z" id="Fill-20"></path>
                    <path d="M82.6453842,8.25640565 C82.6453842,5.6066388 84.310418,3.71758798 86.9357674,3.71758798 C89.4132354,3.71758798 91.0819206,5.5010849 91.0819206,8.11627375 C91.0819206,10.7987987 89.362116,12.6714705 86.7915375,12.6714705 C84.2757298,12.6714705 82.6453842,10.7987987 82.6453842,8.25640565 Z M84.5970521,8.20180881 C84.5970521,9.96892667 85.5007711,11.2574122 86.8463083,11.2574122 C88.1918455,11.2574122 89.0955645,9.87975183 89.0955645,8.16541091 C89.0955645,6.41831189 88.2101025,5.11162741 86.8645653,5.11162741 C85.4825142,5.11162741 84.5970521,6.40011294 84.5970521,8.20180881 Z" id="Fill-21"></path>
                    <path d="M99.4582091,12.4767417 L99.4582091,7.54846657 C99.4582091,6.03067429 98.8721611,5.26995826 97.7201475,5.26995826 C96.586391,5.26995826 95.8049935,6.24178209 95.8049935,7.37193677 L95.8049935,12.4767417 L93.8953166,12.4767417 L93.8953166,6.34733599 C93.8953166,5.58843985 93.8734082,4.77494687 93.8222888,3.89229788 L95.5055795,3.89229788 L95.5950386,5.21718131 L95.6498094,5.21718131 C96.1591783,4.29995432 97.2071273,3.71576808 98.3773977,3.71576808 C100.181184,3.71576808 101.367886,5.09342846 101.367886,7.33553887 L101.367886,12.4767417" id="Fill-22"></path>
                    <path d="M111.78165,5.3245551 L111.78165,9.49211423 C111.78165,10.5531129 112.152266,11.0827023 112.895324,11.0827023 C113.231252,11.0827023 113.517886,11.0463044 113.746098,10.9935275 L113.799043,12.4421637 C113.426601,12.5841155 112.928187,12.6550914 112.312927,12.6550914 C110.803078,12.6550914 109.904836,11.8252194 109.904836,9.65226497 L109.904836,5.3245551 L108.650583,5.3245551 L108.650583,3.89411778 L109.904836,3.89411778 L109.904836,2.32172866 L111.78165,1.75574137 L111.78165,3.89229788 L113.886676,3.89229788 L113.886676,5.3245551" id="Fill-23"></path>
                    <path d="M122.10413,12.4767417 L122.10413,7.58486446 C122.10413,6.04887324 121.518081,5.27177815 120.367894,5.27177815 C119.376541,5.27177815 118.456391,5.94331934 118.456391,7.30278077 L118.456391,12.4767417 L116.541237,12.4767417 L116.541237,-0.0441346056 L118.456391,-0.0441346056 L118.456391,5.11162741 L118.492905,5.11162741 C119.093559,4.17620147 119.964415,3.71576808 121.079915,3.71576808 C122.903784,3.71576808 124.019284,5.12800646 124.019284,7.37193677 L124.019284,12.4767417" id="Fill-24"></path>
                    <path d="M128.054069,8.64404325 C128.090583,10.2692093 129.167743,11.1864363 130.763401,11.1864363 C131.617826,11.1864363 132.395572,11.0444845 133.082033,10.7805998 L133.381447,12.1054832 C132.569013,12.4585428 131.610523,12.6350726 130.493198,12.6350726 C127.800298,12.6350726 126.206466,10.9389306 126.206466,8.3091826 C126.206466,5.6776147 127.836812,3.69938903 130.279592,3.69938903 C132.475903,3.69938903 133.859779,5.3245551 133.859779,7.77959321 C133.867082,8.11445385 133.848825,8.4147365 133.79588,8.64404325 L128.054069,8.64404325 Z M130.146316,5.02427246 C129.047247,5.02427246 128.180042,5.97789734 128.054069,7.28458182 L132.041387,7.28458182 C132.041387,5.95969839 131.369531,5.02427246 130.146316,5.02427246 Z" id="Fill-25"></path>
                </g>
            </g>
        </g>
    </g>
</svg>