<?xml version="1.0" encoding="utf-8"?>
<!-- Generator: Adobe Illustrator 16.0.0, SVG Export Plug-In . SVG Version: 6.00 Build 0)  -->
<!DOCTYPE svg PUBLIC "-//W3C//DTD SVG 1.1//EN" "http://www.w3.org/Graphics/SVG/1.1/DTD/svg11.dtd">
<svg version="1.1" xmlns="http://www.w3.org/2000/svg" xmlns:xlink="http://www.w3.org/1999/xlink" x="0px" y="0px"
	 width="690.984px" height="108.546px" viewBox="0 0 690.984 108.546" enable-background="new 0 0 690.984 108.546"
	 xml:space="preserve">
<g id="Layer_1">
	<path fill-rule="evenodd" clip-rule="evenodd" fill="#96CC6F" d="M31.619,68.897c-1.083-0.767-2.243-1.363-3.478-1.789
		c-1.232-0.424-2.552-0.637-3.956-0.637c-1.765,0-3.381,0.329-4.849,0.999s-2.724,1.587-3.775,2.733
		c-1.053,1.139-1.884,2.49-2.478,4.032c-0.596,1.532-0.894,3.179-0.894,4.914c0,1.743,0.298,3.382,0.894,4.912
		c0.594,1.531,1.414,2.86,2.467,4.001c1.053,1.138,2.307,2.03,3.777,2.69c1.456,0.659,3.072,0.988,4.838,0.988
		c0.745,0,1.478-0.053,2.211-0.16c0.734-0.106,1.511-0.246,2.34-0.414v-8.36c0-0.403,0.118-0.744,0.352-1.01
		c0.233-0.266,0.584-0.394,1.051-0.394h8.712c0.319,0,0.66,0.128,1.021,0.383c0.362,0.255,0.543,0.594,0.543,1.021v15.465
		c0,0.574-0.31,1.043-0.925,1.404c-1,0.68-2.106,1.265-3.319,1.754c-1.213,0.501-2.488,0.906-3.806,1.224
		c-1.321,0.318-2.65,0.554-4.001,0.712c-1.35,0.16-2.669,0.245-3.946,0.245c-2.254,0-4.423-0.287-6.499-0.861
		c-2.073-0.574-4.02-1.393-5.829-2.457c-1.808-1.063-3.456-2.339-4.935-3.818c-1.478-1.477-2.753-3.115-3.816-4.913
		c-1.064-1.797-1.884-3.743-2.457-5.818C0.288,83.669,0,81.51,0,79.245c0-2.254,0.288-4.414,0.862-6.486
		c0.573-2.085,1.402-4.033,2.467-5.852c1.063-1.818,2.34-3.467,3.817-4.965c1.49-1.49,3.127-2.756,4.946-3.809
		c1.808-1.053,3.755-1.872,5.828-2.457c2.073-0.586,4.233-0.884,6.487-0.884c2.554,0,4.968,0.362,7.234,1.075
		c2.265,0.713,4.392,1.744,6.392,3.084c0.362,0.213,0.639,0.5,0.83,0.851c0.19,0.353,0.148,0.745-0.128,1.202l-5.167,7.477
		c-0.278,0.341-0.553,0.564-0.831,0.682C32.459,69.28,32.087,69.194,31.619,68.897L31.619,68.897z"/>
	<path fill-rule="evenodd" clip-rule="evenodd" fill="#96CC6F" d="M196.32,56.964c0-0.448,0.125-0.798,0.372-1.064
		c0.244-0.266,0.586-0.402,1.03-0.402h31.685c0.468,0,0.83,0.137,1.086,0.414c0.254,0.276,0.382,0.647,0.382,1.115v7.914
		c0,0.361-0.128,0.702-0.382,1.031c-0.256,0.329-0.628,0.5-1.119,0.5h-20.676v7.912h15.953c0.405,0,0.748,0.096,1.014,0.288
		c0.263,0.191,0.392,0.51,0.392,0.958v6.923c0,0.297-0.119,0.586-0.353,0.86c-0.234,0.278-0.572,0.415-1.021,0.415h-15.985v8.106
		h21.442c0.958,0,1.435,0.489,1.435,1.467v8.042c0,0.212-0.085,0.402-0.256,0.574c-0.083,0.594-0.52,0.892-1.307,0.892h-32.29
		c-0.424,0-0.763-0.117-1.021-0.339c-0.256-0.225-0.381-0.565-0.381-1.032V56.964L196.32,56.964z"/>
	<path fill-rule="evenodd" clip-rule="evenodd" fill="#96CC6F" d="M240.413,56.899c0-0.384,0.119-0.712,0.352-0.988
		c0.233-0.277,0.586-0.414,1.054-0.414h10.466c0.296,0,0.605,0.073,0.925,0.223c0.319,0.148,0.595,0.404,0.82,0.766
		c2.698,4.36,5.37,8.667,8.017,12.901c2.649,4.232,5.328,8.528,8.04,12.899V56.707c0.086-0.382,0.257-0.679,0.514-0.892
		c0.254-0.215,0.553-0.318,0.892-0.318h9.094c0.448,0,0.819,0.127,1.115,0.371c0.3,0.246,0.448,0.584,0.448,1.031v44.766
		c0,0.426-0.128,0.733-0.385,0.937c-0.253,0.202-0.605,0.308-1.049,0.308h-10.18c-0.276,0-0.52-0.096-0.734-0.286
		c-0.214-0.191-0.435-0.447-0.672-0.766c-2.817-4.68-5.615-9.316-8.369-13.892c-2.764-4.572-5.562-9.2-8.413-13.889v27.428
		c0,0.468-0.105,0.82-0.319,1.054c-0.21,0.233-0.596,0.351-1.148,0.351h-9.06c-0.491,0-0.839-0.139-1.063-0.403
		c-0.224-0.267-0.342-0.585-0.342-0.968V56.899L240.413,56.899z"/>
	<path fill-rule="evenodd" clip-rule="evenodd" fill="#96CC6F" d="M319.447,87.593c0.363,0.298,0.829,0.694,1.392,1.193
		c0.563,0.498,1.201,1,1.926,1.488c1.083,0.725,2.16,1.287,3.223,1.692c1.062,0.402,2.179,0.604,3.35,0.604
		c1.087,0,1.999-0.127,2.732-0.371c0.734-0.245,1.31-0.563,1.734-0.968c0.424-0.405,0.734-0.872,0.915-1.403
		c0.181-0.533,0.267-1.096,0.267-1.693c0-0.659-0.244-1.253-0.744-1.775c-0.501-0.522-1.118-0.979-1.84-1.383
		c-0.724-0.404-1.478-0.755-2.267-1.043c-0.787-0.286-1.469-0.521-2.041-0.712c-2.555-0.895-4.786-1.862-6.701-2.893
		c-1.916-1.032-3.509-2.181-4.786-3.446c-1.276-1.266-2.235-2.659-2.874-4.18s-0.958-3.212-0.958-5.083
		c0-1.979,0.406-3.776,1.205-5.394c0.796-1.617,1.936-2.998,3.423-4.148c1.478-1.148,3.265-2.04,5.352-2.669
		c2.092-0.627,4.423-0.937,6.997-0.937c1.935,0,3.798,0.214,5.572,0.648c1.777,0.438,3.521,1.14,5.242,2.098
		c0.725,0.424,1.415,0.859,2.064,1.317c0.647,0.458,1.214,0.903,1.702,1.33c0.49,0.426,0.885,0.829,1.171,1.212
		c0.286,0.384,0.425,0.713,0.425,0.99c0,0.275-0.062,0.531-0.2,0.766c-0.139,0.234-0.353,0.499-0.63,0.797l-4.881,5.201
		c-0.361,0.361-0.725,0.543-1.086,0.543c-0.295,0-0.562-0.085-0.807-0.256c-0.247-0.172-0.523-0.382-0.819-0.639l-0.29-0.256
		c-0.425-0.359-0.892-0.732-1.412-1.117c-0.522-0.381-1.085-0.732-1.682-1.041c-0.596-0.309-1.224-0.562-1.882-0.766
		c-0.658-0.202-1.33-0.297-2.011-0.297c-0.701,0-1.359,0.063-1.978,0.18c-0.616,0.117-1.159,0.299-1.626,0.554
		c-0.468,0.255-0.84,0.595-1.116,1.01s-0.415,0.916-0.415,1.511c0,0.606,0.149,1.117,0.444,1.553c0.3,0.438,0.748,0.84,1.34,1.213
		c0.596,0.372,1.343,0.733,2.225,1.064c0.882,0.329,1.902,0.68,3.074,1.062c2.255,0.744,4.338,1.53,6.243,2.351
		c1.902,0.819,3.542,1.786,4.924,2.914c1.383,1.116,2.469,2.445,3.246,4.011c0.773,1.551,1.157,3.436,1.157,5.656
		c0,2.341-0.479,4.467-1.438,6.371c-0.968,1.904-2.273,3.532-3.956,4.871c-1.667,1.351-3.637,2.383-5.891,3.117
		c-2.265,0.733-4.69,1.104-7.287,1.104c-2.444,0-4.848-0.436-7.208-1.318c-2.363-0.871-4.565-2.053-6.606-3.53
		c-0.852-0.617-1.562-1.223-2.148-1.83c-0.585-0.596-1.053-1.073-1.392-1.436l-0.095-0.106c-0.023-0.042-0.047-0.063-0.066-0.074
		c-0.02-0.012-0.042-0.031-0.063-0.053c-0.023-0.042-0.042-0.063-0.065-0.073c-0.02-0.012-0.043-0.033-0.062-0.055
		c-0.491-0.531-0.733-0.957-0.733-1.274c0-0.374,0.242-0.779,0.733-1.226l5.52-5.265c0.447-0.319,0.809-0.479,1.085-0.479
		c0.191,0,0.392,0.063,0.605,0.19C318.891,87.146,319.148,87.338,319.447,87.593L319.447,87.593z"/>
	<path fill-rule="evenodd" clip-rule="evenodd" fill="#96CC6F" d="M356.171,56.899c0-0.384,0.125-0.712,0.372-0.988
		c0.243-0.277,0.585-0.414,1.029-0.414h9.446c0.318,0,0.657,0.127,1.01,0.383c0.354,0.255,0.521,0.594,0.521,1.02V74.32
		c2.321-2.978,4.596-5.913,6.83-8.806c2.23-2.894,4.499-5.828,6.796-8.808c0.233-0.36,0.542-0.658,0.914-0.882
		c0.372-0.225,0.734-0.328,1.096-0.328h12.126c0.51,0,0.763,0.146,0.763,0.447c0,0.21-0.114,0.467-0.348,0.763l-15.031,19.826
		l16.623,25.036c0.233,0.362,0.352,0.648,0.352,0.862c0,0.318-0.232,0.478-0.7,0.478h-12.062c-0.363,0-0.712-0.105-1.063-0.319
		c-0.353-0.212-0.648-0.499-0.882-0.86c-1.129-1.532-2.149-2.999-3.074-4.404c-0.925-1.402-1.83-2.807-2.702-4.199
		s-1.754-2.798-2.649-4.222c-0.893-1.428-1.869-2.927-2.937-4.501l-4.051,4.659v12.442c0,0.938-0.51,1.404-1.53,1.404h-9.413
		c-0.958,0-1.435-0.467-1.435-1.404V56.899L356.171,56.899z"/>
	<path fill-rule="evenodd" clip-rule="evenodd" fill="#96CC6F" d="M405.911,56.964c0-0.448,0.128-0.798,0.371-1.064
		c0.247-0.266,0.586-0.402,1.033-0.402h31.683c0.47,0,0.831,0.137,1.085,0.414c0.257,0.276,0.386,0.647,0.386,1.115v7.914
		c0,0.361-0.129,0.702-0.386,1.031c-0.254,0.329-0.626,0.5-1.115,0.5h-20.676v7.912h15.952c0.405,0,0.745,0.096,1.012,0.288
		c0.267,0.191,0.395,0.51,0.395,0.958v6.923c0,0.297-0.119,0.586-0.353,0.86c-0.233,0.278-0.573,0.415-1.021,0.415h-15.985v8.106
		h21.442c0.954,0,1.435,0.489,1.435,1.467v8.042c0,0.212-0.086,0.402-0.256,0.574c-0.086,0.594-0.521,0.892-1.307,0.892h-32.291
		c-0.425,0-0.767-0.117-1.022-0.339c-0.254-0.225-0.382-0.565-0.382-1.032V56.964L405.911,56.964z"/>
	<path fill-rule="evenodd" clip-rule="evenodd" fill="#96CC6F" d="M447.294,56.899c0-0.426,0.147-0.765,0.438-1.02
		c0.286-0.256,0.636-0.383,1.063-0.383h34.363c0.382,0,0.724,0.116,1.021,0.35c0.295,0.233,0.468,0.586,0.51,1.053v7.945
		c0,0.383-0.129,0.744-0.391,1.096c-0.267,0.351-0.653,0.531-1.14,0.531h-11.009v34.938c0,0.383-0.139,0.722-0.415,1.032
		c-0.275,0.308-0.639,0.467-1.086,0.467h-9.38c-0.362,0-0.701-0.147-1.021-0.436c-0.318-0.287-0.479-0.638-0.479-1.063V66.472
		h-10.974c-0.428,0-0.777-0.139-1.063-0.414c-0.29-0.277-0.438-0.682-0.438-1.213V56.899L447.294,56.899z"/>
	<path fill-rule="evenodd" clip-rule="evenodd" fill="#96CC6F" d="M526.072,58.942c0.362,0.212,0.626,0.488,0.796,0.829
		c0.172,0.341,0.139,0.745-0.095,1.213l-5.391,7.657c-0.233,0.361-0.48,0.564-0.747,0.617c-0.264,0.054-0.596-0.031-0.979-0.266
		c-1.043-0.789-2.191-1.395-3.445-1.82c-1.254-0.425-2.583-0.639-3.988-0.639c-1.744,0-3.352,0.332-4.819,0.991
		c-1.464,0.66-2.731,1.563-3.795,2.712c-1.065,1.148-1.892,2.488-2.491,4.02c-0.593,1.533-0.892,3.17-0.892,4.914
		s0.299,3.37,0.892,4.892c0.6,1.521,1.426,2.851,2.491,3.988c1.063,1.14,2.331,2.043,3.795,2.703
		c1.468,0.659,3.075,0.988,4.819,0.988c1.405,0,2.745-0.222,4.021-0.659c1.273-0.435,2.436-1.042,3.479-1.828
		c0.382-0.234,0.701-0.332,0.954-0.287c0.257,0.041,0.511,0.233,0.767,0.573l5.457,7.859c0.233,0.479,0.267,0.872,0.096,1.191
		c-0.171,0.318-0.438,0.585-0.797,0.797c-2.001,1.342-4.149,2.383-6.457,3.117c-2.308,0.733-4.742,1.105-7.296,1.105
		c-2.254,0-4.415-0.287-6.488-0.861c-2.072-0.574-4.021-1.393-5.828-2.457c-1.82-1.063-3.455-2.339-4.946-3.818
		c-1.478-1.477-2.755-3.115-3.818-4.913c-1.062-1.797-1.892-3.743-2.467-5.818c-0.573-2.074-0.859-4.233-0.859-6.498
		c0-2.254,0.286-4.414,0.859-6.486c0.575-2.085,1.404-4.033,2.467-5.852c1.063-1.818,2.341-3.467,3.818-4.965
		c1.491-1.49,3.126-2.756,4.946-3.809c1.808-1.053,3.756-1.872,5.828-2.457c2.073-0.586,4.234-0.884,6.488-0.884
		c2.554,0,4.966,0.353,7.231,1.065C521.945,56.571,524.071,57.601,526.072,58.942L526.072,58.942z"/>
	<path fill-rule="evenodd" clip-rule="evenodd" fill="#96CC6F" d="M535.929,56.899c0.02-0.361,0.158-0.682,0.406-0.967
		c0.242-0.289,0.562-0.436,0.968-0.436h9.508c0.319,0,0.648,0.137,0.987,0.402c0.342,0.267,0.514,0.598,0.514,1v18.345l15.822,0.083
		V56.899c0-0.384,0.139-0.712,0.406-0.988c0.267-0.277,0.606-0.414,1.031-0.414h9.35c0.424,0,0.796,0.104,1.115,0.318
		c0.319,0.213,0.48,0.553,0.48,1.021v44.669c0,0.468-0.139,0.82-0.414,1.054c-0.277,0.233-0.64,0.351-1.087,0.351h-9.444
		c-0.425,0-0.765-0.117-1.031-0.351c-0.268-0.233-0.406-0.586-0.406-1.054V83.382h-15.822v18.123c0,0.447-0.152,0.787-0.438,1.032
		c-0.286,0.244-0.671,0.372-1.158,0.372h-9.412c-0.896,0-1.354-0.414-1.374-1.244V56.899z"/>
	<path fill-rule="evenodd" clip-rule="evenodd" fill="#AF6227" d="M681.035,52.078l-33.257,35.5l-47.489,19.943l-6.263,1.026v-5.567
		l7.341-48.187l29.584-38.465C642.465,44.386,662.552,27.827,681.035,52.078z"/>
	<path fill-rule="evenodd" clip-rule="evenodd" fill="#96CC6F" d="M649.693,22.701c5.206-19.057,28.184-16.201,41.291-7.768
		c-8.524,13.037-28.319,25.004-40.841,9.777c8.724,0.175,16.996,0.135,28.816-5.958C670.485,23.064,657.488,23.805,649.693,22.701z"
		/>
	<path fill-rule="evenodd" clip-rule="evenodd" fill="#96CC6F" d="M647.506,21.078C655.146,14.122,648.35,4.1,641.302,0
		c-4.042,7.07-4.907,19.137,5.163,21.346c-2.156-4.021-4.105-7.882-4.08-14.837C642.393,11.48,645.138,17.711,647.506,21.078z"/>
	<path fill-rule="evenodd" clip-rule="evenodd" fill="#96CC6F" d="M186.228,72.854c-0.585-2.042-1.406-3.945-2.458-5.712
		c-1.052-1.766-2.328-3.36-3.818-4.785c-1.489-1.426-3.126-2.648-4.923-3.67c-1.799-1.021-3.734-1.809-5.807-2.361
		c-2.075-0.553-4.233-0.828-6.467-0.828h-15.729c-0.49,0-0.853,0.137-1.096,0.414c-0.245,0.276-0.374,0.639-0.374,1.084v44.574
		c0,0.554,0.15,0.915,0.448,1.085c0.297,0.171,0.639,0.255,1.021,0.255h15.729c2.234,0,4.392-0.275,6.477-0.818
		c2.085-0.542,4.032-1.308,5.829-2.309c1.799-0.999,3.436-2.211,4.914-3.636c1.478-1.426,2.744-3.021,3.808-4.776
		c1.062-1.754,1.882-3.647,2.457-5.68c0.575-2.032,0.862-4.17,0.862-6.424C187.1,77.032,186.812,74.896,186.228,72.854z
		 M174.783,79.245c-0.728,14.833-16.848,12.242-16.848,12.242V66.982C157.935,66.982,175.512,64.396,174.783,79.245z"/>
	<path fill-rule="evenodd" clip-rule="evenodd" fill="#96CC6F" d="M139.017,100.804c-0.234-0.403-0.426-0.755-0.574-1.053
		l-8.233-15.454c1.148-0.66,2.213-1.458,3.181-2.383c0.967-0.924,1.796-1.956,2.5-3.094c0.701-1.139,1.254-2.361,1.648-3.669
		c0.392-1.309,0.584-2.692,0.584-4.139c0-2.127-0.405-4.137-1.223-6.018c-0.82-1.885-1.947-3.532-3.373-4.938
		c-1.424-1.402-3.094-2.508-5.008-3.328c-1.916-0.818-3.968-1.232-6.158-1.232h-20.613c-0.467,0-0.819,0.137-1.053,0.402
		c-0.234,0.267-0.351,0.616-0.351,1.064v44.574c0,0.467,0.127,0.808,0.382,1.032c0.255,0.222,0.597,0.339,1.022,0.339h9.508
		c0.978,0,1.468-0.458,1.468-1.371V87.146h5.159l7.731,14.583c0.086,0.361,0.276,0.648,0.563,0.86
		c0.288,0.214,0.607,0.319,0.969,0.319h10.977c0.383,0,0.691-0.096,0.913-0.275c0.224-0.183,0.331-0.438,0.331-0.776
		C139.367,101.56,139.25,101.208,139.017,100.804z M119.326,77.001h-6.601V65.292c0,0,5.605,0.019,6.286,0.054
		s6.648-0.31,6.285,5.816S119.326,77.001,119.326,77.001z"/>
	<path fill-rule="evenodd" clip-rule="evenodd" fill="#96CC6F" d="M93.008,101.475L76.255,58.239l-0.796-1.818
		c-0.129-0.17-0.319-0.372-0.575-0.596c-0.255-0.225-0.565-0.328-0.925-0.328h-8.168c-0.171,0-0.353,0.029-0.543,0.104
		c-0.19,0.076-0.372,0.182-0.541,0.311c-0.171,0.128-0.31,0.267-0.426,0.414c-0.117,0.148-0.191,0.288-0.212,0.416l-17.327,44.892
		c-0.17,0.425-0.116,0.745,0.149,0.957c0.265,0.214,0.596,0.319,1.001,0.319h9.411c0.808,0,1.351-0.394,1.627-1.18
		c0.405-1.085,0.82-2.171,1.234-3.244c0.416-1.073,0.818-2.148,1.223-3.233h16.943c0.403,1.085,0.808,2.16,1.211,3.233
		c0.405,1.073,0.819,2.159,1.246,3.244c0.148,0.426,0.36,0.722,0.627,0.904c0.267,0.18,0.638,0.275,1.127,0.275H91.7
		c0.574,0,0.979-0.139,1.212-0.403C93.146,102.239,93.177,101.898,93.008,101.475z M64.962,84.978l4.914-14.582l4.88,14.582H64.962z
		"/>
	<path fill-rule="evenodd" clip-rule="evenodd" fill="#FFFFFF" d="M640.5,85.363l-7.307-9.661L616.676,63.16l-10.808-4.141
		l-5.151,31.843c3.993,0.185,2.329-1.119,5.703,1.512c3.247,2.536,2.136,2.652,3.281,6.286L640.5,85.363z"/>
</g>
<g id="Layer_2">
</g>
</svg>
